<?xml version="1.0" encoding="UTF-8" standalone="no"?>
<svg
   width="87.522987"
   height="23.909204"
   version="1.1"
   id="svg3"
   sodipodi:docname="logo.svg"
   inkscape:version="1.4.2 (f4327f4, 2025-05-13)"
   xmlns:inkscape="http://www.inkscape.org/namespaces/inkscape"
   xmlns:sodipodi="http://sodipodi.sourceforge.net/DTD/sodipodi-0.dtd"
   xmlns="http://www.w3.org/2000/svg"
   xmlns:svg="http://www.w3.org/2000/svg">
  <defs
     id="defs3">
    <inkscape:perspective
       sodipodi:type="inkscape:persp3d"
       inkscape:vp_x="0 : 11.909204 : 1"
       inkscape:vp_y="0 : 1000 : 0"
       inkscape:vp_z="146 : 11.909204 : 1"
       inkscape:persp3d-origin="73 : 7.9092045 : 1"
       id="perspective2" />
  </defs>
  <sodipodi:namedview
     id="namedview3"
     pagecolor="#ffffff"
     bordercolor="#000000"
     borderopacity="0.25"
     inkscape:showpageshadow="2"
     inkscape:pageopacity="0.0"
     inkscape:pagecheckerboard="0"
     inkscape:deskcolor="#d1d1d1"
     inkscape:zoom="4.2934943"
     inkscape:cx="44.136544"
     inkscape:cy="28.880905"
     inkscape:window-width="1031"
     inkscape:window-height="1020"
     inkscape:window-x="-7"
     inkscape:window-y="46"
     inkscape:window-maximized="0"
     inkscape:current-layer="svg3"
     showguides="true" />
  <g
     fill="none"
     fill-rule="evenodd"
     id="g3"
     transform="matrix(-1,0,0,1,87.522987,0)">
    <g
       fill="#f3603c"
       id="g2">
      <path
         d="m 2.786,10.286 c 1.538,0 2.785,1.279 2.785,2.857 C 5.571,14.72 4.324,16 2.786,16 1.247,16 0,14.72 0,13.143 0,11.565 1.247,10.286 2.786,10.286 Z M 2.786,0 C 4.324,0 5.57,1.28 5.57,2.857 5.57,4.435 4.323,5.714 2.785,5.714 1.247,5.714 0,4.435 0,2.857 0,1.28 1.247,0 2.786,0 Z m 10.028,0 c 1.539,0 2.786,1.28 2.786,2.857 0,1.578 -1.247,2.857 -2.786,2.857 -1.538,0 -2.785,-1.279 -2.785,-2.857 C 10.029,1.28 11.276,0 12.814,0 Z"
         id="path2" />
      <ellipse
         cx="12.814"
         cy="13.257"
         opacity="0.5"
         rx="2.786"
         ry="2.8570001"
         id="ellipse2" />
    </g>
  </g>
  <text
     xml:space="preserve"
     style="font-size:24px;font-family:Vazirmatn;-inkscape-font-specification:Vazirmatn;text-align:start;writing-mode:lr-tb;direction:ltr;text-anchor:start;fill:#000000"
     x="0.140625"
     y="16.303736"
     id="text3"><tspan
       sodipodi:role="line"
       id="tspan3"
       x="0.140625"
       y="16.303736">پروژه‌یار</tspan></text>
</svg>
