<?xml version="1.0" encoding="UTF-8" standalone="no"?>
<svg
   width="87.216087"
   height="23.909206"
   version="1.1"
   id="svg3"
   sodipodi:docname="logo-old.svg"
   inkscape:export-filename="logo-old.png"
   inkscape:export-xdpi="96"
   inkscape:export-ydpi="96"
   inkscape:version="1.4.2 (f4327f4, 2025-05-13)"
   xmlns:inkscape="http://www.inkscape.org/namespaces/inkscape"
   xmlns:sodipodi="http://sodipodi.sourceforge.net/DTD/sodipodi-0.dtd"
   xmlns="http://www.w3.org/2000/svg"
   xmlns:svg="http://www.w3.org/2000/svg">
  <defs
     id="defs3" />
  <sodipodi:namedview
     id="namedview3"
     pagecolor="#1d1f25"
     bordercolor="#000000"
     borderopacity="0"
     inkscape:showpageshadow="2"
     inkscape:pageopacity="0.0"
     inkscape:pagecheckerboard="0"
     inkscape:deskcolor="#d1d1d1"
     inkscape:zoom="4.2934943"
     inkscape:cx="14.906273"
     inkscape:cy="11.529071"
     inkscape:window-width="1920"
     inkscape:window-height="991"
     inkscape:window-x="-9"
     inkscape:window-y="-9"
     inkscape:window-maximized="1"
     inkscape:current-layer="g3" />
  <g
     fill="none"
     fill-rule="evenodd"
     id="g3"
     transform="matrix(-1,0,0,1,87.216087,0)">
    <g
       fill="#f3603c"
       id="g2">
      <path
         d="m 2.786,10.286 c 1.538,0 2.785,1.279 2.785,2.857 C 5.571,14.72 4.324,16 2.786,16 1.247,16 0,14.72 0,13.143 0,11.565 1.247,10.286 2.786,10.286 Z M 2.786,0 C 4.324,0 5.57,1.28 5.57,2.857 5.57,4.435 4.323,5.714 2.785,5.714 1.247,5.714 0,4.435 0,2.857 0,1.28 1.247,0 2.786,0 Z m 10.028,0 c 1.539,0 2.786,1.28 2.786,2.857 0,1.578 -1.247,2.857 -2.786,2.857 -1.538,0 -2.785,-1.279 -2.785,-2.857 C 10.029,1.28 11.276,0 12.814,0 Z"
         id="path2" />
      <ellipse
         cx="12.814"
         cy="13.257"
         opacity="0.5"
         rx="2.786"
         ry="2.8570001"
         id="ellipse2" />
    </g>
    <text
       xml:space="preserve"
       style="font-size:24px;font-family:Vazirmatn;-inkscape-font-specification:Vazirmatn;text-align:start;writing-mode:lr-tb;direction:ltr;text-anchor:start;fill:#ffffff"
       x="-87.075462"
       y="16.303738"
       id="text3"
       transform="scale(-1,1)"><tspan
         sodipodi:role="line"
         id="tspan3"
         x="-87.075462"
         y="16.303738">پروژه‌یار</tspan></text>
  </g>
</svg>
